<?xml version="1.0" encoding="UTF-8"?>
<svg id="Ebene_1" xmlns="http://www.w3.org/2000/svg" version="1.1" viewBox="0 0 32 32">
  <!-- Generator: Adobe Illustrator 29.7.1, SVG Export Plug-In . SVG Version: 2.1.1 Build 8)  -->
  <defs>
    <style>
      .st0 {
        fill: #010101;
      }

      .st1 {
        fill: #fedc03;
      }

      .st2 {
        fill: #fefefe;
      }
    </style>
  </defs>
  <path class="st2" d="M32,0v32H0V0h32ZM29.01,2.93H2.93v26.07h26.07V2.93Z"/>
  <path class="st1" d="M29.01,2.93v26.07H2.93V2.93h26.07ZM28.13,3.81H3.81v24.33h24.33V3.81Z"/>
  <path class="st2" d="M28.13,3.81v24.33H3.81V3.81h24.33ZM14.16,9.42h-3.43v1.56h1.62v11.6h3.37v-1.62h-1.56v-5.04c.76-.54,2.87-1.86,3.51-.62.04.08.17.51.17.57v6.55s.09.09.09.09h3.18s.09-.09.09-.09v-1.53h-1.47c-.07,0-.09-.15-.1-.22-.2-1.69.38-4.75-.22-6.21-.26-.64-.69-1.02-1.35-1.2-1.49-.4-2.76.28-3.92,1.14v-4.99Z"/>
  <path class="st0" d="M14.16,9.42v4.99c1.15-.86,2.43-1.54,3.92-1.14.66.18,1.1.57,1.35,1.2.59,1.46.02,4.52.22,6.21,0,.06.03.22.1.22h1.47v1.53s-.09.09-.09.09h-3.18s-.09-.09-.09-.09v-6.55c0-.06-.13-.5-.17-.57-.63-1.25-2.74.07-3.49.62v5.04s1.55,0,1.55,0v1.62h-3.37v-11.6h-1.62v-1.56h3.43Z"/>
</svg>